# Blender v2.68 (sub 0) OBJ File: ''
# www.blender.org
mtllib mesh_debug_circle.mtl
o Circle_Circle.001
v 0.000000 0.000000 0.000000
v 0.000000 1.000000 -0.000001
v 0.382683 0.923880 -0.000001
v 0.707107 0.707107 -0.000000
v 0.923880 0.382683 -0.000000
v 1.000000 -0.000000 0.000000
v 0.923880 -0.382684 0.000000
v 0.707107 -0.707107 0.000000
v 0.382683 -0.923880 0.000001
v 0.000000 -1.000000 0.000001
v -0.382683 -0.923880 0.000001
v -0.707107 -0.707107 0.000000
v -0.923880 -0.382684 0.000000
v -1.000000 0.000000 -0.000000
v -0.923879 0.382684 -0.000000
v -0.707107 0.707107 -0.000000
v -0.382683 0.923880 -0.000001
vt 0.500000 0.500000
vt 0.216829 0.923795
vt 0.076205 0.783170
vt 0.000100 0.599436
vt 0.000100 0.400564
vt 0.076205 0.216829
vt 0.216830 0.076205
vt 0.400564 0.000100
vt 0.599436 0.000100
vt 0.783170 0.076205
vt 0.923794 0.216829
vt 0.999900 0.400563
vt 0.999900 0.599436
vt 0.923795 0.783170
vt 0.783171 0.923795
vt 0.599436 0.999900
vt 0.400564 0.999900
vn 0.000000 -0.000001 -1.000000
usemtl Material.001
s off
f 1/1/1 2/2/1 3/3/1
f 1/1/1 3/3/1 4/4/1
f 1/1/1 4/4/1 5/5/1
f 1/1/1 5/5/1 6/6/1
f 1/1/1 6/6/1 7/7/1
f 1/1/1 7/7/1 8/8/1
f 1/1/1 8/8/1 9/9/1
f 1/1/1 9/9/1 10/10/1
f 1/1/1 10/10/1 11/11/1
f 1/1/1 11/11/1 12/12/1
f 1/1/1 12/12/1 13/13/1
f 1/1/1 13/13/1 14/14/1
f 1/1/1 14/14/1 15/15/1
f 1/1/1 15/15/1 16/16/1
f 1/1/1 16/16/1 17/17/1
f 1/1/1 17/17/1 2/2/1
