# Blender v2.67 (sub 0) OBJ File: 'table.blend'
# www.blender.org
mtllib mesh_materialdemo_table.mtl
o Cube
v -5.000000 -1.337430 5.000000
v -5.000000 -1.337430 -5.000000
v 5.000000 -1.337430 -5.000000
v 5.000000 -1.337430 5.000000
v -5.000000 -1.000000 5.000000
v -5.000000 -1.000000 -5.000000
v 5.000000 -1.000000 -5.000000
v 5.000000 -1.000000 5.000000
vt 0.998258 0.006901
vt 0.995252 -0.973038
vt 1.549360 0.005210
vt 1.549360 0.986839
vt 1.552366 0.006901
vt 2.103468 0.008591
vt 1.549360 -0.973038
vt 2.100461 -0.974728
vt 0.998258 0.988529
vt 0.995252 0.008591
vt 1.546353 0.006901
vt 0.995252 0.005210
vt 0.015313 0.008216
vt 0.012307 -0.971722
vt 0.012307 0.011222
vt 0.992245 0.008216
vt 0.995252 0.988154
vt 1.546353 -0.974728
vt 2.100461 0.988529
vt 2.103468 0.005210
vt 0.992245 -0.974728
vt 0.015313 0.991161
vn -1.000000 0.000000 0.000000
vn 0.000000 0.000000 -1.000000
vn 1.000000 -0.000000 0.000000
vn 0.000000 0.000000 1.000000
vn 0.000000 -1.000000 0.000000
vn 0.000000 1.000000 0.000000
usemtl Material
s off
f 5/1/1 6/2/1 1/3/1
f 6/4/2 7/5/2 3/6/2
f 7/5/3 8/7/3 4/8/3
f 8/9/4 5/10/4 1/11/4
f 1/12/5 2/13/5 3/14/5
f 8/15/6 7/16/6 6/17/6
f 6/2/1 2/18/1 1/3/1
f 2/19/2 6/4/2 3/6/2
f 3/20/3 7/5/3 4/8/3
f 4/4/4 8/9/4 1/11/4
f 4/21/5 1/12/5 3/14/5
f 5/22/6 8/15/6 6/17/6
