# Blender v2.67 (sub 0) OBJ File: 'metal_cube.blend'
# www.blender.org
mtllib mesh_materialdemo_cube.mtl
o Cube
v -1.000000 -1.000000 1.000000
v -1.000000 -1.000000 -1.000000
v 1.000000 -1.000000 -1.000000
v 1.000000 -1.000000 1.000000
v -1.000000 1.000000 1.000000
v -1.000000 1.000000 -1.000000
v 1.000000 1.000000 -1.000000
v 1.000000 1.000000 1.000000
vt 1.000072 1.000069
vt -0.000141 0.999762
vt 1.000195 -0.000074
vt 0.001317 0.998005
vt 0.000732 -0.000772
vt 0.999869 1.000027
vt 1.000068 1.000110
vt 0.000078 1.000096
vt 0.000348 0.000184
vt -0.000731 0.999918
vt 0.001202 0.000229
vt 1.000091 0.000082
vt 0.999714 1.000018
vt -0.000421 1.000620
vt 0.000222 0.000157
vt 0.000367 0.000518
vt 1.001272 0.000052
vt 0.999686 0.999929
vt 0.000276 -0.000561
vt 1.000308 -0.000474
vt 1.000459 0.000434
vt 1.000123 0.999963
vt 1.000088 0.000123
vt 0.000322 1.000399
vn -1.000000 0.000000 0.000000
vn 0.000000 0.000000 -1.000000
vn 1.000000 -0.000000 0.000000
vn 0.000000 0.000000 1.000000
vn 0.000000 -1.000000 0.000000
vn 0.000000 1.000000 0.000000
usemtl metal
s off
f 5/1/1 6/2/1 1/3/1
f 6/4/2 7/5/2 2/6/2
f 7/7/3 8/8/3 4/9/3
f 8/10/4 5/11/4 1/12/4
f 1/13/5 2/14/5 3/15/5
f 8/16/6 7/17/6 6/18/6
f 6/2/1 2/19/1 1/3/1
f 7/5/2 3/20/2 2/6/2
f 3/21/3 7/7/3 4/9/3
f 4/22/4 8/10/4 1/12/4
f 4/23/5 1/13/5 3/15/5
f 5/24/6 8/16/6 6/18/6
