# Blender v2.67 (sub 0) OBJ File: ''
# www.blender.org
mtllib mesh_materialdemo_cone.mtl
o Cone
v 0.000000 -1.000000 1.000000
v -0.195090 -1.000000 0.980785
v -0.382683 -1.000000 0.923880
v -0.555570 -1.000000 0.831470
v -0.707107 -1.000000 0.707107
v -0.831470 -1.000000 0.555570
v -0.923880 -1.000000 0.382683
v -0.980785 -1.000000 0.195090
v -1.000000 -1.000000 0.000000
v 0.000000 1.000000 0.000000
v -0.980785 -1.000000 -0.195090
v -0.923880 -1.000000 -0.382683
v -0.831470 -1.000000 -0.555570
v -0.707107 -1.000000 -0.707107
v -0.555570 -1.000000 -0.831470
v -0.382683 -1.000000 -0.923880
v -0.195090 -1.000000 -0.980785
v 0.000000 -1.000000 -1.000000
v 0.195091 -1.000000 -0.980785
v 0.382684 -1.000000 -0.923879
v 0.555571 -1.000000 -0.831469
v 0.707107 -1.000000 -0.707106
v 0.831470 -1.000000 -0.555570
v 0.923880 -1.000000 -0.382683
v 0.980785 -1.000000 -0.195089
v 1.000000 -1.000000 0.000001
v 0.980785 -1.000000 0.195091
v 0.923879 -1.000000 0.382684
v 0.831469 -1.000000 0.555571
v 0.707106 -1.000000 0.707108
v 0.555569 -1.000000 0.831470
v 0.382682 -1.000000 0.923880
v 0.195089 -1.000000 0.980786
vt 0.471358 0.486963
vt 0.437627 0.973926
vt 0.437749 0.489779
vt 0.732549 0.098001
vt 0.437627 0.486963
vt 0.702982 0.074786
vt 0.756011 0.122230
vt 0.668444 0.053478
vt 0.508899 0.488928
vt 0.548928 0.495598
vt 0.589908 0.506718
vt 0.630264 0.521860
vt 0.668444 0.540441
vt 0.702982 0.561749
vt 0.732549 0.584964
vt 0.763680 0.545919
vt 0.999314 0.975779
vt 0.732549 0.566991
vt 0.799634 0.527099
vt 0.839029 0.511256
vt 0.880352 0.498997
vt 0.922014 0.490794
vt 0.962414 0.486963
vt 1.000000 0.487650
vt 0.172273 0.512413
vt 0.437627 0.924590
vt 0.142705 0.535628
vt 0.206811 0.491106
vt 0.244991 0.472524
vt 0.285346 0.457382
vt 0.326326 0.446263
vt 0.366356 0.439592
vt 0.403897 0.437627
vt 0.437506 0.440444
vt 0.471358 0.000000
vt 0.437749 0.002816
vt 0.508899 0.001965
vt 0.548928 0.008635
vt 0.589908 0.019755
vt 0.630264 0.034897
vt 0.024904 0.322461
vt 0.008409 0.282639
vt 0.048850 0.358299
vt 0.000000 0.240365
vt 0.000000 0.197262
vt 0.008409 0.154988
vt 0.024904 0.115167
vt 0.048850 0.079328
vt 0.079328 0.048850
vt 0.115167 0.024904
vt 0.154988 0.008409
vt 0.197262 0.000000
vt 0.240365 0.000000
vt 0.282639 0.008409
vt 0.322461 0.024903
vt 0.358299 0.048850
vt 0.388777 0.079328
vt 0.412724 0.115167
vt 0.429219 0.154988
vt 0.437627 0.197263
vt 0.437627 0.240365
vt 0.429219 0.282639
vt 0.412724 0.322461
vt 0.388777 0.358299
vt 0.358299 0.388778
vt 0.322461 0.412724
vt 0.282639 0.429219
vt 0.240365 0.437627
vt 0.197262 0.437627
vt 0.154988 0.429219
vt 0.115166 0.412724
vt 0.079328 0.388777
vn 0.330668 -0.503281 0.798334
vn 0.000000 1.000000 0.000000
vn 0.168554 -0.503281 0.847499
vn 0.000000 -0.503281 0.864101
vn -0.168554 -0.503281 0.847499
vn -0.330668 -0.503281 0.798334
vn 0.480056 -0.503281 0.718467
vn 0.611011 -0.503281 0.611011
vn 0.718467 -0.503281 0.480056
vn 0.798334 -0.503281 0.330668
vn 0.847499 -0.503281 0.168554
vn 0.864101 -0.503281 0.000000
vn 0.847499 -0.503281 -0.168554
vn 0.798334 -0.503281 -0.330668
vn 0.718467 -0.503281 -0.480056
vn 0.611011 -0.503281 -0.611011
vn 0.480056 -0.503281 -0.718467
vn 0.330668 -0.503281 -0.798334
vn 0.168554 -0.503281 -0.847499
vn 0.000000 -0.503281 -0.864101
vn -0.168554 -0.503281 -0.847499
vn -0.330668 -0.503281 -0.798334
vn -0.480056 -0.503281 -0.718467
vn -0.611011 -0.503281 -0.611011
vn -0.718467 -0.503281 -0.480056
vn -0.798334 -0.503281 -0.330668
vn -0.847499 -0.503281 -0.168554
vn -0.864101 -0.503281 0.000000
vn -0.847499 -0.503281 0.168554
vn -0.798334 -0.503281 0.330668
vn -0.718467 -0.503281 0.480056
vn -0.611011 -0.503281 0.611011
vn -0.480056 -0.503281 0.718467
usemtl Material
s 1
f 32/1/1 10/2/2 33/3/3
f 1/4/4 10/5/2 2/6/5
f 33/7/3 10/5/2 1/4/4
f 2/6/5 10/5/2 3/8/6
f 31/9/7 10/2/2 32/1/1
f 30/10/8 10/2/2 31/9/7
f 29/11/9 10/2/2 30/10/8
f 28/12/10 10/2/2 29/11/9
f 27/13/11 10/2/2 28/12/10
f 26/14/12 10/2/2 27/13/11
f 25/15/13 10/2/2 26/14/12
f 24/16/14 10/17/2 25/18/13
f 23/19/15 10/17/2 24/16/14
f 22/20/16 10/17/2 23/19/15
f 21/21/17 10/17/2 22/20/16
f 20/22/18 10/17/2 21/21/17
f 19/23/19 10/17/2 20/22/18
f 18/24/20 10/17/2 19/23/19
f 17/25/21 10/26/2 18/27/20
f 16/28/22 10/26/2 17/25/21
f 15/29/23 10/26/2 16/28/22
f 14/30/24 10/26/2 15/29/23
f 13/31/25 10/26/2 14/30/24
f 12/32/26 10/26/2 13/31/25
f 11/33/27 10/26/2 12/32/26
f 9/34/28 10/26/2 11/33/27
f 8/35/29 10/5/2 9/36/28
f 7/37/30 10/5/2 8/35/29
f 6/38/31 10/5/2 7/37/30
f 5/39/32 10/5/2 6/38/31
f 4/40/33 10/5/2 5/39/32
f 3/8/6 10/5/2 4/40/33
f 1/41/4 2/42/5 33/43/3
f 2/42/5 3/44/6 33/43/3
f 3/44/6 4/45/33 33/43/3
f 4/45/33 5/46/32 33/43/3
f 5/46/32 6/47/31 33/43/3
f 6/47/31 7/48/30 33/43/3
f 7/48/30 8/49/29 33/43/3
f 8/49/29 9/50/28 33/43/3
f 9/50/28 11/51/27 33/43/3
f 11/51/27 12/52/26 33/43/3
f 12/52/26 13/53/25 33/43/3
f 13/53/25 14/54/24 33/43/3
f 14/54/24 15/55/23 33/43/3
f 15/55/23 16/56/22 33/43/3
f 16/56/22 17/57/21 33/43/3
f 17/57/21 18/58/20 33/43/3
f 18/58/20 19/59/19 33/43/3
f 19/59/19 20/60/18 33/43/3
f 20/60/18 21/61/17 33/43/3
f 21/61/17 22/62/16 33/43/3
f 22/62/16 23/63/15 33/43/3
f 23/63/15 24/64/14 33/43/3
f 24/64/14 25/65/13 33/43/3
f 25/65/13 26/66/12 33/43/3
f 26/66/12 27/67/11 33/43/3
f 27/67/11 28/68/10 33/43/3
f 28/68/10 29/69/9 33/43/3
f 29/69/9 30/70/8 33/43/3
f 30/70/8 31/71/7 32/72/1
f 33/43/3 30/70/8 32/72/1
