# Blender v2.67 (sub 0) OBJ File: ''
# www.blender.org
mtllib mesh_twoddemo_strip.mtl
o Plane
v -0.250000 -0.045274 0.000000
v 0.250000 -0.045274 0.000000
v -0.250000 0.045274 -0.000000
v 0.250000 0.045274 -0.000000
v -0.204545 -0.045274 0.000000
v -0.159091 -0.045274 0.000000
v -0.113636 -0.045274 0.000000
v -0.068182 -0.045274 0.000000
v -0.022727 -0.045274 0.000000
v 0.022727 -0.045274 0.000000
v 0.068182 -0.045274 0.000000
v 0.113636 -0.045274 0.000000
v 0.159091 -0.045274 0.000000
v 0.204545 -0.045274 0.000000
v -0.204545 0.045274 -0.000000
v -0.159091 0.045274 -0.000000
v -0.113636 0.045274 -0.000000
v -0.068182 0.045274 -0.000000
v -0.022727 0.045274 -0.000000
v 0.022727 0.045274 -0.000000
v 0.068182 0.045274 -0.000000
v 0.113636 0.045274 -0.000000
v 0.159091 0.045274 -0.000000
v 0.204545 0.045274 -0.000000
vt 10.970284 0.997030
vt 11.967332 0.997030
vt 10.970262 0.000688
vt 0.999800 0.997030
vt 1.996855 0.997030
vt 0.999854 0.000688
vt 2.993902 0.997031
vt 1.996901 0.000689
vt 3.990951 0.997031
vt 2.993940 0.000689
vt 4.987999 0.997030
vt 3.990981 0.000689
vt 5.985048 0.997030
vt 4.988023 0.000689
vt 6.982096 0.997030
vt 5.985064 0.000689
vt 7.979144 0.997030
vt 6.982105 0.000689
vt 8.976190 0.997030
vt 7.979146 0.000689
vt 9.973237 0.997030
vt 8.976182 0.000689
vt 9.973222 0.000689
vt 11.967299 0.000688
vn 0.000000 -0.000000 -1.000000
usemtl Material
s off
f 5/1/1 1/2/1 15/3/1
f 2/4/1 14/5/1 4/6/1
f 14/5/1 13/7/1 24/8/1
f 13/7/1 12/9/1 23/10/1
f 12/9/1 11/11/1 22/12/1
f 11/11/1 10/13/1 21/14/1
f 10/13/1 9/15/1 20/16/1
f 9/15/1 8/17/1 19/18/1
f 8/17/1 7/19/1 18/20/1
f 7/19/1 6/21/1 17/22/1
f 6/21/1 5/1/1 16/23/1
f 1/2/1 3/24/1 15/3/1
f 14/5/1 24/8/1 4/6/1
f 13/7/1 23/10/1 24/8/1
f 12/9/1 22/12/1 23/10/1
f 11/11/1 21/14/1 22/12/1
f 10/13/1 20/16/1 21/14/1
f 9/15/1 19/18/1 20/16/1
f 8/17/1 18/20/1 19/18/1
f 7/19/1 17/22/1 18/20/1
f 6/21/1 16/23/1 17/22/1
f 5/1/1 15/3/1 16/23/1
